<svg height="30" viewBox="0 0 20 30" width="20" xmlns="http://www.w3.org/2000/svg"><g fill="#0085ff"><path d="m19.550025 21.605325h-5.150025c-.44175 0-.79995-.3582-.79995-.800025s0-4.0053 0-4.0053h4.6953c.2199 0 .40755-.158925.44385-.37575l.317925-1.899975c.0459-.27435-.165675-.52425-.44385-.52425h-7.813275v6.805275c0 1.98825 1.61175 3.6 3.6 3.6h2.80005v2.082225c-1.3854.526275-2.570925.7125-4.098525.7125-3.98835 0-6.1575525-2.08935-6.2944575-5.99475-.0410925-1.172325-.00705-2.001675-.00705-7.20525h-6.03195c-.219849 0-.40754925.15885-.443799.37575l-.31800004 1.899975c-.04585001.27435.16565029.52425.44385004.52425h3.5499015l.0063975 4.405275c.0764025 2.62215.9071025 4.82925 2.415105 6.349275 1.5871275 1.599825 3.8970525 2.44545 6.6800025 2.44545 2.344725 0 4.121325-.387525 6.4395-1.471575.280575-.13125.459-.414.459-.72375v-5.74935c0-.24855-.20145-.45-.45-.45z"/><path d="m1.387275 11.199975h5.41275v-6.0079875l3.999975-1.41645v7.4244375h8.43195c.2199 0 .40755-.158925.44385-.37575l.317925-1.899975c.0459-.27435-.165675-.52425-.44385-.52425h-5.949825v-7.949664c0-.31065-.30735-.52785-.6003-.42414997l-8.6999775 3.08080147c-.1796475.063645-.299745.233595-.299745.4242v4.8688125h-2.294805c-.2198475 0-.40755.15885-.44385.37575l-.317895 1.899975c-.0459525.27435.1656.52425.4437975.52425z"/></g></svg>