<svg height="41" viewBox="0 0 171 41" width="171" xmlns="http://www.w3.org/2000/svg"><g fill="none"><path d="m118.775676 38.0488571c-.115541 0-.231081-.1167142-.231081-.2334285v-4.902c0-.1167143.11554-.2334286.231081-.2334286h.346621c.115541 0 .231081.1167143.231081.2334286v1.2838571h1.155406c1.502027 0 2.19527.9337143 2.19527 1.9841429 0 .9337143-.693243 1.9841428-2.19527 1.9841428h-1.733108zm3.004054-1.9841428c0-.817-.693244-1.0504286-1.386487-1.0504286h-.924324v2.1008572h.924324c.808784 0 1.386487-.2334286 1.386487-1.0504286zm-4.15946-3.5014286c.115541 0 .231081.1167143.231081.2334286v.3501428c0 .1167143-.11554.2334286-.231081.2334286h-1.733108v4.2017143c0 .1167143-.11554.2334286-.231081.2334286h-.346622c-.11554 0-.231081-.1167143-.231081-.2334286v-4.2017143h-1.733108c-.11554 0-.231081-.1167143-.231081-.2334286v-.3501428c0-.1167143.115541-.2334286.231081-.2334286zm-8.66554 2.3342857h2.888513c0-.9337143-.577702-1.5172857-1.502027-1.5172857-.808784 0-1.386486.5835714-1.386486 1.5172857zm1.386486-2.451c1.848649 0 2.426352 1.4005715 2.426352 2.9178572 0 .1167143-.115541.2334285-.231082.2334285h-3.581756v.1167143c0 .9337143.577702 1.5172857 1.386486 1.5172857.577703 0 .924325-.1167142 1.270946-.5835714.115541-.1167143.115541-.1167143.346622-.1167143h.346621c.231081 0 .346622.1167143.231081.3501429-.346621.7002857-1.270945 1.1671428-2.19527 1.1671428-1.617567 0-2.426351-1.2838571-2.426351-2.8011428s.924324-2.8011429 2.426351-2.8011429zm-5.545946 4.7852857c.577703 0 1.155406-.2334285 1.386487-.817.11554-.1167142.11554-.2334285.346621-.2334285h.346622c.115541 0 .231081.1167143.231081.2334285-.231081 1.0504286-1.155405 1.7507143-2.310811 1.7507143-1.733108 0-2.426351-1.2838571-2.426351-2.8011428s.808784-2.8011429 2.426351-2.8011429c1.270946 0 2.195271.7002857 2.310811 1.7507143 0 .1167143 0 .2334286-.231081.2334286h-.346622c-.231081 0-.231081-.1167143-.346621-.2334286-.231081-.5835714-.808784-.817-1.386487-.817-1.155405 0-1.502027.9337143-1.502027 1.8674286s.346622 1.8674285 1.502027 1.8674285zm-45.9851349-4.6685714c.1155406 0 .2310811.1167143.2310811.2334286v.3501428c0 .1167143-.1155405.2334286-.2310811.2334286h-1.7331081v4.2017143c0 .1167143-.1155405.2334286-.2310811.2334286h-.3466216c-.1155405 0-.2310811-.1167143-.2310811-.2334286v-4.2017143h-1.9641891c-.1155406 0-.2310811-.1167143-.2310811-.2334286v-.3501428c0-.1167143.1155405-.2334286.2310811-.2334286zm7.8567568 2.3342857h2.8885135c0-.9337143-.5777027-1.5172857-1.502027-1.5172857-.8087838 0-1.3864865.5835714-1.3864865 1.5172857zm1.3864865-2.451c1.8486486 0 2.4263513 1.4005715 2.4263513 2.9178572 0 .1167143-.1155405.2334285-.2310811.2334285h-3.5817567v.1167143c0 .9337143.5777027 1.5172857 1.3864865 1.5172857.5777027 0 .9243243-.1167142 1.2709459-.5835714.1155406-.1167143.1155406-.1167143.3466216-.1167143h.3466217c.231081 0 .3466216.1167143.231081.3501429-.3466216.7002857-1.2709459 1.1671428-2.1952702 1.1671428-1.6175676 0-2.4263514-1.2838571-2.4263514-2.8011428.1155406-1.5172857.9243244-2.8011429 2.4263514-2.8011429zm11.7851351 4.7852857c.5777027 0 1.1554054-.2334285 1.3864865-.817.1155405-.1167142.1155405-.2334285.3466216-.2334285h.4621622c.1155405 0 .2310811.1167143.2310811.2334285-.2310811 1.0504286-1.1554054 1.7507143-2.3108108 1.7507143-1.7331082 0-2.4263514-1.2838571-2.4263514-2.8011428s.8087838-2.8011429 2.4263514-2.8011429c1.2709459 0 2.1952702.7002857 2.3108108 1.7507143 0 .1167143 0 .2334286-.2310811.2334286h-.3466216c-.2310811 0-.2310811-.1167143-.3466217-.2334286-.231081-.5835714-.8087837-.817-1.3864864-.817-1.1554055 0-1.5020271.9337143-1.5020271 1.8674286-.1155405.9337143.3466216 1.8674285 1.3864865 1.8674285zm15.0202703-2.8011428c0 .817.4621621.9337143 1.1554054.9337143h1.3864865v-1.8674286h-1.3864865c-.6932433 0-1.1554054.1167143-1.1554054.9337143zm3.2351351-1.8674286c.1155406 0 .2310811.1167143.2310811.2334286v4.902c0 .1167143-.1155405.2334286-.2310811.2334286h-.3466216c-.1155405 0-.2310811-.1167143-.2310811-.2334286v-1.5172857h-1.2709459l-1.270946 1.634c-.1155405.1167143-.2310811.2334285-.3466216.2334285h-.5777027c-.2310811 0-.2310811-.2334285-.1155405-.3501428l1.1554054-1.5172857c-.8087838-.2334286-1.1554054-.817-1.1554054-1.634 0-1.2838572.9243243-1.8674286 2.0797297-1.8674286h2.0797297zm-7.9722973 4.6685714c.9243243 0 1.7331081-.5835714 1.6175676-1.634v-.3501428l-1.270946.2334286c-.6932432.1167142-1.2709459.3501428-1.2709459.9337142 0 .5835715.3466216.817.9243243.817zm-1.9641892-.5835714c0-1.1671428.9243244-1.634 1.9641892-1.7507143l1.6175676-.2334285c0-.817-.3466216-1.2838572-1.1554054-1.2838572-.4621622 0-.8087838.2334286-1.0398649.5835714-.1155405.1167143-.2310811.1167143-.3466216.1167143h-.3466216c-.1155406 0-.2310811-.1167143-.2310811-.2334285.2310811-.9337143 1.2709459-1.2838572 1.9641892-1.2838572 1.2709459 0 2.1952703.7002857 2.1952703 2.1008572v3.1512857c0 .1167143-.1155406.2334285-.2310811.2334285h-.3466216c-.1155406 0-.2310811-.1167142-.2310811-.2334285v-.4668572c-.3466217.4668572-1.0398649.817-1.7331081.817-1.1554054 0-2.0797298-.5835714-2.0797298-1.5172857zm-43.0966216.5835714c.9243243 0 1.7331081-.5835714 1.6175676-1.634v-.3501428l-1.270946.2334286c-.6932432.1167142-1.2709459.3501428-1.2709459.9337142 0 .5835715.4621621.817.9243243.817zm-1.8486486-.5835714c0-1.1671428.9243243-1.634 1.9641892-1.7507143l1.6175675-.2334285c0-.817-.3466216-1.2838572-1.1554054-1.2838572-.4621621 0-.8087838.2334286-1.0398649.5835714-.1155405.1167143-.231081.1167143-.3466216.1167143h-.3466216c-.1155405 0-.2310811-.1167143-.2310811-.2334285.2310811-.9337143 1.270946-1.2838572 1.9641892-1.2838572 1.270946 0 2.1952703.7002857 2.1952703 2.1008572v3.1512857c0 .1167143-.1155406.2334285-.2310811.2334285h-.3466216c-.1155406 0-.2310811-.1167142-.2310811-.2334285v-.4668572c-.3466216.4668572-1.0398649.817-1.7331081.817-1.1554054 0-2.0797297-.5835714-2.0797297-1.5172857zm41.1324324-2.1008571 2.1952703-1.8674286c.1155405-.1167143.231081-.2334286.3466216-.2334286h.4621621c.2310811 0 .3466217.2334286.1155406.4668572l-2.4263514 2.1008571 2.6574325 2.451c.2310811.1167143.2310811.4668572 0 .4668572h-.5777027c-.1155406 0-.3466217-.1167143-.4621622-.2334286l-2.3108108-2.2175714v2.1008571c0 .1167143-.1155405.2334286-.2310811.2334286h-.3466216c-.1155405 0-.2310811-.1167143-.2310811-.2334286v-4.902c0-.1167143.1155406-.2334286.2310811-.2334286h.3466216c.1155406 0 .2310811.1167143.2310811.2334286zm-11.7851351.7002857c0 1.0504286.231081 1.9841428 1.502027 1.9841428 1.1554054 0 1.502027-.9337142 1.502027-1.8674285 0-1.0504286-.3466216-1.8674286-1.502027-1.8674286-1.1554054-.1167143-1.502027.7002857-1.502027 1.7507143zm1.6175675 2.9178571c-.5777027 0-1.1554054-.2334285-1.6175675-.7002857v2.3342857c0 .1167143-.1155406.2334286-.2310811.2334286h-.3466216c-.1155406 0-.2310811-.1167143-.2310811-.2334286v-6.7694285c0-.1167143.1155405-.2334286.2310811-.2334286h.3466216c.1155405 0 .2310811.1167143.2310811.2334286v.3501428c.3466216-.4668571.9243243-.7002857 1.6175675-.7002857 1.6175676 0 2.3108108 1.4005714 2.3108108 2.8011429 0 1.2838571-.6932432 2.6844285-2.3108108 2.6844285zm-24.1479729-2.9178571c0 1.0504286.231081 1.9841428 1.502027 1.9841428 1.1554054 0 1.502027-.9337142 1.502027-1.8674285 0-1.0504286-.3466216-1.8674286-1.502027-1.8674286-1.1554054-.1167143-1.502027.7002857-1.502027 1.7507143zm1.6175675 2.9178571c-.5777027 0-1.1554054-.2334285-1.6175675-.7002857v2.3342857c0 .1167143-.1155406.2334286-.2310811.2334286h-.3466216c-.1155406 0-.2310811-.1167143-.2310811-.2334286v-6.7694285c0-.1167143.1155405-.2334286.2310811-.2334286h.3466216c.1155405 0 .2310811.1167143.2310811.2334286v.3501428c.3466216-.4668571.9243243-.7002857 1.6175675-.7002857 1.6175676 0 2.3108108 1.4005714 2.3108108 2.8011429 0 1.2838571-.6932432 2.6844285-2.3108108 2.6844285zm17.9087838-6.6527143c0 .1167143-.1155405.2334286-.2310811.2334286h-.5777027c-.1155405 0-.2310811-.1167143-.2310811-.2334286v-.5835714c0-.1167143.1155406-.2334286.2310811-.2334286h.5777027c.1155406 0 .2310811.1167143.2310811.2334286zm-1.8486486 0c0 .1167143-.1155406.2334286-.2310811.2334286h-.5777027c-.1155406 0-.2310811-.1167143-.2310811-.2334286v-.5835714c0-.1167143.1155405-.2334286.2310811-.2334286h.5777027c.1155405 0 .2310811.1167143.2310811.2334286zm-3.4662163 1.0504286c.1155406 0 .2310811.1167143.2310811.2334286v4.902c0 .1167143-.1155405.2334286-.2310811.2334286h-.3466216c-.1155405 0-.2310811-.1167143-.2310811-.2334286v-1.9841429h-2.8885135v1.9841429c0 .1167143-.1155405.2334286-.2310811.2334286h-.3466216c-.1155405 0-.2310811-.1167143-.2310811-.2334286v-4.902c0-.1167143.1155406-.2334286.2310811-.2334286h.3466216c.1155406 0 .2310811.1167143.2310811.2334286v1.8674286h2.772973v-1.8674286c0-.1167143.1155405-.2334286.2310811-.2334286zm-22.4148648 0c.1155405 0 .2310811.1167143.2310811.2334286v4.902c0 .1167143-.1155406.2334286-.2310811.2334286h-.3466216c-.1155406 0-.2310811-.1167143-.2310811-.2334286v-4.2017143h-2.8885135v4.2017143c0 .1167143-.1155406.2334286-.2310811.2334286h-.3466216c-.1155406 0-.2310811-.1167143-.2310811-.2334286v-4.902c0-.1167143.1155405-.2334286.2310811-.2334286zm17.7932432-13.072c-.4621621.2334286-1.1554054.5835714-1.8486486.5835714-.8087838 0-1.1554054-.3501428-1.1554054-1.0504285s.4621621-1.0504286 1.3864865-1.0504286h1.6175675zm-2.0797297-3.6181428c-2.3108108 0-4.1594595 1.1671428-4.1594595 3.8515714 0 2.1008571 1.3864865 3.268 3.4662162 3.268 1.5020271 0 2.4263514-.5835714 3.1195946-1.1671429l.1155406.5835715c0 .2334285.2310811.3501428.4621621.3501428h1.9641892c.2310811 0 .4621622-.2334286.4621622-.4668571v-7.1195715c0-2.2175714-1.0398649-3.9682857-4.5060811-3.9682857-1.502027 0-2.772973.2334286-3.9283784.4668572-.231081.1167143-.3466216.2334285-.3466216.4668571v1.4005714c0 .2334286.2310811.4668572.4621622.4668572h3.3506757c.8087837 0 1.502027.3501428 1.502027 1.2838571v.3501429h-1.9641892zm-20.2195946 2.9178571c0 2.9178571 1.1554054 4.3184286 3.8128378 4.3184286 1.1554054 0 2.1952703-.2334286 2.772973-.5835715.2310811-.1167142.3466216-.2334285.3466216-.4668571v-1.4005714c0-.2334286-.2310811-.4668572-.4621621-.4668572h-1.8486487c-.5777027 0-1.1554054-.4668571-1.1554054-1.1671428v-4.5518572h2.4263514c.3466216 0 .5777027-.2334285.5777027-.5835714v-1.8674286c0-.2334285-.2310811-.5835714-.5777027-.5835714h-2.4263514v-3.15128571c0-.35014286-.3466216-.58357143-.6932432-.46685715l-2.3108108.817c-.2310811.11671429-.3466217.23342857-.3466217.46685715v2.33428571h-1.3864865c-.3466216 0-.5777027.2334286-.5777027.5835714v1.8674286c0 .3501429.2310811.5835714.5777027.5835714h1.3864865zm15.1358108-7.4697143c-1.8486486 0-3.004054.817-3.4662162 1.1671429l-.1155406-.5835715c0-.2334285-.231081-.3501428-.4621621-.3501428h-1.9641892c-.2310811 0-.4621622.2334286-.4621622.4668571v10.3875715c0 .2334285.2310811.4668571.4621622.4668571h2.3108108c.2310811 0 .4621622-.2334286.4621622-.4668571v-7.4697143c.3466216-.3501429 1.0398648-.7002857 2.5418919-.7002857h.6932432c.2310811 0 .4621622-.2334286.4621622-.4668572v-1.8674286c0-.3501428-.2310811-.5835714-.4621622-.5835714zm15.0202703.5835714c0-.2334285-.2310811-.3501428-.4621622-.3501428h-2.6574324c-.2310811 0-.4621622.2334286-.4621622.4668571v.2334286l3.8128379 10.3875714c.1155405.2334286.231081.3501429.4621621.3501429h2.4263514c.2310811 0 .3466216-.1167143.4621621-.3501429l3.8128379-10.3875714c0-.1167143 0-.1167143 0-.2334286 0-.2334285-.2310811-.4668571-.4621622-.4668571h-2.5418919c-.2310811 0-.4621621.1167143-.4621621.3501428l-1.9641892 6.4192858zm65.1648653 8.2867143c-.924325 0-1.733109-.5835714-1.733109-2.9178571s.924325-2.9178572 1.733109-2.9178572c.924324 0 1.733108.5835715 1.733108 2.9178572.11554 2.3342857-.808784 2.9178571-1.733108 2.9178571zm0-8.8702857c-3.466217 0-5.199325 2.1008572-5.199325 5.8357143 0 3.8515714 1.733108 5.8357143 5.199325 5.8357143 3.466216 0 5.199324-2.1008572 5.199324-5.8357143s-1.733108-5.8357143-5.199324-5.8357143zm-6.23919.2334286h-2.426351c-.231081 0-.462162.1167143-.577703.4668571l-1.964189 5.9524286-2.07973-5.9524286c-.11554-.2334285-.231081-.3501428-.462162-.3501428h-2.657432c-.346622 0-.577703.2334285-.577703.4668571v.2334286l4.043919 10.0374286-1.848649 4.902c-.11554.3501428.115541.7002857.462163.7002857h2.426351c.231081 0 .346621-.1167143.462162-.3501429l5.545946-15.2895714c0-.1167143 0-.1167143 0-.2334286.115541-.3501428-.115541-.5835714-.346622-.5835714zm41.363514 4.6685714c-.577703-.2334286-1.733108-.5835714-2.426351-.817-.346622-.1167143-.693244-.2334286-.693244-.5835714 0-.4668572.462162-.5835714 1.270946-.5835714h3.119595c.231081 0 .462162-.2334286.462162-.4668572v-1.4005714c0-.2334286-.115541-.4668572-.346622-.4668572-1.155405-.3501428-2.079729-.4668571-3.466216-.4668571-1.964189 0-4.621621.817-4.621621 3.6181429 0 .7002857.231081 2.3342857 2.079729 2.9178571.808784.2334286 2.310811.7002857 3.119595.9337143.346621.1167143.577703.3501428.577703.7002857 0 .4668571-.346622.5835714-.808784.5835714h-4.043919c-.231081 0-.462162.2334286-.462162.4668572v1.4005714c0 .2334286.11554.4668571.346621.4668571.577703.2334286 1.733108.4668572 3.581757.4668572 4.737162 0 4.968243-2.6844286 4.968243-3.7348572.115541-1.2838571-.577702-2.451-2.657432-3.0345714zm-56.268243 3.268c-.462163.2334286-1.155406.5835714-1.848649.5835714-.808784 0-1.155405-.3501428-1.155405-1.0504285s.462162-1.0504286 1.386486-1.0504286h1.617568zm-1.039865-8.17c-1.502027 0-2.772973.2334286-3.928379.4668572-.231081.1167142-.346621.2334285-.346621.4668571v1.4005714c0 .2334286.231081.4668572.462162.4668572h3.350676c.808783 0 1.502027.3501428 1.502027 1.2838571v.3501429h-2.07973c-2.310811 0-4.15946 1.1671428-4.15946 3.8515714 0 2.1008571 1.386487 3.268 3.466217 3.268 1.502027 0 2.426351-.5835714 3.119594-1.1671429l.115541.5835715c0 .2334285.231081.3501428.462162.3501428h1.964189c.231081 0 .462162-.2334285.462162-.4668571v-7.1195714c0-1.8674286-.924324-3.7348572-4.39054-3.7348572zm38.475.2334286h-2.310811c-.231081 0-.462162.2334286-.462162.4668571v7.5864286c-.462162.3501429-1.155406.5835714-1.733108.5835714-1.039865 0-1.270946-.5835714-1.270946-1.8674285v-6.3025715c0-.2334285-.231081-.4668571-.462162-.4668571h-2.310811c-.231081 0-.462162.2334286-.462162.4668571v6.1858572c0 1.4005714-.231081 4.902 3.466216 4.902 1.386486 0 2.541892-.4668572 3.235135-1.1671429l.11554.5835714c0 .2334286.231082.3501429.462163.3501429h1.964189c.231081 0 .462162-.2334286.462162-.4668571v-10.3875715c-.115541-.3501428-.346622-.4668571-.693243-.4668571zm10.629729 8.6368571h-1.848648c-.577703 0-1.155406-.4668571-1.155406-1.1671428v-4.5518572h2.426352c.346621 0 .577702-.2334285.577702-.5835714v-1.8674286c0-.2334285-.231081-.5835714-.577702-.5835714h-2.426352v-3.15128571c0-.35014286-.346621-.58357143-.693243-.46685715l-2.310811.817c-.231081.11671429-.346621.23342857-.346621.46685715v2.33428571h-1.386487c-.231081 0-.577702.2334286-.577702.5835714v1.8674286c0 .3501429.231081.5835714.577702.5835714h1.386487v4.4351429c0 2.9178571 1.155405 4.3184286 3.812838 4.3184286 1.155405 0 2.19527-.2334286 2.772973-.5835715.231081-.1167143.346621-.2334285.346621-.4668571v-1.4005714c-.11554-.3501429-.346621-.5835715-.577703-.5835715zm-68.6310806 2.2175715v-15.98985719c0-.35014285-.3466216-.58357142-.6932432-.46685714l-2.3108108.817c-.2310811.11671429-.3466217.23342857-.3466217.46685714v15.17285719c0 .2334285.2310811.4668571.4621622.4668571h2.3108108c.3466216 0 .5777027-.2334286.5777027-.4668571zm-10.2831081-8.17c1.3864865 0 1.6175676 1.1671428 1.6175676 1.7507142h-3.1195946c-.1155406-1.1671428.5777027-1.7507142 1.502027-1.7507142zm4.0439189 6.3025714c0-.2334286-.2310811-.3501429-.3466216-.3501429h-3.0040541c-1.3864864 0-2.3108108-.3501428-2.3108108-1.9841428h5.545946c.5777027 0 .9243243-.2334286.9243243-1.1671429 0-4.2017143-2.1952703-5.719-4.8527027-5.719-3.4662162 0-5.1993243 2.2175714-5.1993243 5.8357143 0 3.1512857 1.0398648 5.8357143 5.3148648 5.8357143 1.3864865 0 2.6574325-.2334286 3.5817568-.4668572.2310811-.1167142.3466216-.2334285.3466216-.4668571zm13.6337838-.3501429c-.5777027 0-1.0398649-.1167143-1.502027-.2334285v-5.0187143c.4621621-.3501429 1.0398648-.7002857 1.7331081-.7002857.9243243 0 1.9641889.7002857 1.9641889 2.9178571 0 2.3342857-.9243241 3.0345714-2.19527 3.0345714zm1.2709459-8.8702857c-1.3864864 0-2.4263513.5835714-3.004054 1.2838572l-.1155405-.7002858c0-.2334285-.2310811-.3501428-.4621622-.3501428h-1.9641892c-.2310811 0-.4621622.2334286-.4621622.4668571v15.2895715c0 .2334285.2310811.4668571.4621622.4668571h2.3108108c.2310811 0 .4621622-.2334286.4621622-.4668571v-4.5518572c.5777027.1167143 1.1554054.2334286 1.9641892.2334286 3.3506758 0 5.0837838-2.2175714 5.0837838-5.9524286 0-3.6181428-1.502027-5.719-4.2750001-5.719z" fill="#fff"/><path d="m27.3831081 29.412h-6.9324324c-.5777027 0-1.0398649-.4668571-1.0398649-1.0504286v-5.3688571h6.2391892c.3466216 0 .5777027-.2334286.5777027-.4668572l.4621622-2.5677142c.1155405-.3501429-.2310811-.7002858-.5777027-.7002858h-10.5141892v9.2204286c0 2.6844286 2.1952702 4.902 4.8527027 4.902h3.6972973v2.8011429c-1.8486487.7002857-3.4662162.9337143-5.4304054.9337143-5.3148649 0-8.2033784-2.8011429-8.4344595-8.0532858v-9.6872857h-8.08783783c-.34662162 0-.5777027.2334286-.5777027.4668572l-.46216216 2.3342857c-.11554055.3501428.23108108.7002857.5777027.7002857h4.73716216v5.9524286c.11554054 3.5014285 1.27094595 6.536 3.23513514 8.6368571 2.07972969 2.2175714 5.19932429 3.268 8.89662159 3.268 3.1195946 0 5.545946-.4668571 8.6655406-1.9841428.3466216-.2334286.5777027-.5835715.5777027-.9337143v-7.8198572c.1155405-.3501428-.2310811-.5835714-.4621622-.5835714zm-24.37905405-14.1224286h7.27905405v-8.16999997l5.3148649-1.86742857v10.03742854h11.3229729c.3466217 0 .5777027-.2334285.5777027-.4668571l.4621622-2.5677143c.1155406-.3501429-.2310811-.7002857-.5777027-.7002857h-7.9722973v-10.85442859c0-.46685714-.4621622-.70028571-.8087838-.58357142l-11.66959457 4.20171428c-.23108108.11671429-.46216216.35014286-.46216216.58357143v6.536h-3.00405405c-.34662163 0-.57770271.2334286-.57770271.4668571l-.46216216 2.5677143c-.11554054.4668572.23108108.817.5777027.817z" fill="#0086ff"/></g></svg>