<svg height="41" viewBox="0 0 171 41" width="171" xmlns="http://www.w3.org/2000/svg"><g fill="none"><path d="m66.8997466 34.7262739h2.9074859c0-.9353503-.5814972-1.5199443-1.5118927-1.5199443-.6977966 0-1.3955932.584594-1.3955932 1.5199443zm1.5118927-2.4552946c1.860791 0 2.4422882 1.4030255 2.4422882 2.9229697 0 .1169188-.1162995.2338376-.2325989.2338376h-3.721582v.1169188c0 .9353503.5814972 1.5199443 1.3955932 1.5199443.5814972 0 .9303955-.1169188 1.2792938-.584594.1162995-.1169188.1162995-.1169188.3488984-.1169188h.4651977c.2325989 0 .3488983.1169188.2325989.3507564-.3488983.7015128-1.2792938 1.1691879-2.2096893 1.1691879-1.6281922 0-2.4422882-1.2861067-2.4422882-2.8060509 0-1.5199443.814096-2.806051 2.4422882-2.806051zm-28.8422607 4.7936704c.9303955 0 1.7444916-.584594 1.6281922-1.6368631v-.3507563l-1.2792938.2338375c-.6977967.1169188-1.2792939.3507564-1.2792939.9353504 0 .5845939.3488984.8184315.9303955.8184315zm-1.9770904-.584594c0-1.1691879.9303955-1.636863 1.9770904-1.7537818l1.6281922-.2338376c0-.8184315-.3488983-1.2861067-1.1629944-1.2861067-.4651978 0-.8140961.2338376-1.0466949.584594-.1162995.1169188-.2325989.1169188-.3488984.1169188h-.3488983c-.1162994 0-.2325989-.1169188-.2325989-.2338376.2325989-.9353503 1.2792939-1.2861067 1.9770905-1.2861067 1.2792938 0 2.2096893.7015127 2.2096893 2.1045382v3.1568073c0 .1169188-.1162994.2338376-.2325989.2338376h-.3488983c-.1162994 0-.2325988-.1169188-.2325988-.2338376v-.4676751c-.3488984.4676751-1.046695.8184315-1.7444916.8184315-1.1629944 0-2.0933899-.5845939-2.0933899-1.5199443zm21.0501983.584594c.9303955 0 1.7444915-.584594 1.6281921-1.6368631v-.3507563l-1.2792938.2338375c-.6977966.1169188-1.2792938.3507564-1.2792938.9353504 0 .5845939.4651977.8184315.9303955.8184315zm-1.860791-.584594c0-1.1691879.9303955-1.636863 1.9770904-1.7537818l1.6281921-.2338376c0-.8184315-.3488983-1.2861067-1.1629943-1.2861067-.4651978 0-.8140961.2338376-1.046695.584594-.1162994.1169188-.2325989.1169188-.3488983.1169188h-.3488983c-.1162994 0-.2325989-.1169188-.2325989-.2338376.2325989-.9353503 1.2792938-1.2861067 1.9770905-1.2861067 1.2792938 0 2.2096893.7015127 2.2096893 2.1045382v3.1568073c0 .1169188-.1162995.2338376-.2325989.2338376h-.3488983c-.1162994 0-.2325989-.1169188-.2325989-.2338376v-.4676751c-.3488983.4676751-1.0466949.8184315-1.7444916.8184315-1.1629943 0-2.0933898-.5845939-2.0933898-1.5199443zm7.2105651-.4676751c0 .5845939.2325989.9353503.8140961.9353503h.5814972c.1162994 0 .2325988.1169188.2325988.2338376v.3507563c0 .1169188-.1162994.2338376-.2325988.2338376h-.5814972c-1.1629944 0-1.6281922-.7015127-1.6281922-1.8707006v-2.6891322h-.6977966c-.1162994 0-.2325989-.1169188-.2325989-.2338376v-.3507563c0-.1169188.1162995-.2338376.2325989-.2338376h.6977966v-1.7537819c0-.1169187.1162995-.2338375.2325989-.2338375h.3488983c.1162995 0 .2325989.1169188.2325989.2338375v1.7537819h1.2792938c.1162995 0 .2325989.1169188.2325989.2338376v.3507563c0 .1169188-.1162994.2338376-.2325989.2338376h-1.2792938zm-8.2572601-4.6767516c0 .1169188-.1162994.2338376-.2325989.2338376h-.5814971c-.1162995 0-.2325989-.1169188-.2325989-.2338376v-.584594c0-.1169188.1162994-.2338375.2325989-.2338375h.5814971c.1162995 0 .2325989.1169187.2325989.2338375zm0 6.1966958c0 .1169188-.1162994.2338376-.2325989.2338376h-.3488983c-.1162994 0-.2325988-.1169188-.2325988-.2338376v-4.9105891c0-.1169188.1162994-.2338376.2325988-.2338376h.3488983c.1162995 0 .2325989.1169188.2325989.2338376zm-2.5585876 0c0 .1169188-.1162995.2338376-.2325989.2338376h-.3488983c-.1162994 0-.2325989-.1169188-.2325989-.2338376v-6.7812898c0-.1169188.1162995-.2338375.2325989-.2338375h.3488983c.1162994 0 .2325989.1169187.2325989.2338375zm-2.4422882 0c0 .1169188-.1162995.2338376-.2325989.2338376h-.3488983c-.1162994 0-.2325989-.1169188-.2325989-.2338376v-4.2090764h-1.860791v4.2090764c0 .1169188-.1162994.2338376-.2325989.2338376h-.3488983c-.1162994 0-.2325989-.1169188-.2325989-.2338376v-4.2090764h-2.0933898v4.2090764c0 .1169188-.1162995.2338376-.2325989.2338376h-.3488983c-.1162995 0-.2325989-.1169188-.2325989-.2338376v-4.2090764h-.8140961c-.1162994 0-.2325988-.1169188-.2325988-.2338376v-.3507563c0-.1169188.1162994-.2338376.2325988-.2338376h.8140961v-.4676752c0-1.1691879.4651978-1.7537818 1.6281921-1.7537818h.5814972c.1162995 0 .2325989.1169188.2325989.2338376v.3507563c0 .1169188-.1162994.2338376-.2325989.2338376h-.5814972c-.6977966 0-.814096.3507564-.814096.9353503v.4676752h2.0933898v-.4676752c0-1.1691879.4651978-1.7537818 1.6281922-1.7537818h1.7444915c.1162995 0 .2325989.1169188.2325989.2338376v.3507563c0 .1169188-.1162994.2338376-.2325989.2338376h-1.6281921c-.6977966 0-.814096.3507564-.814096.9353503v.4676752h2.4422881c.1162995 0 .2325989.1169188.2325989.2338376v4.7936703zm30.3541533-2.8060509h2.9074859c0-.9353503-.5814971-1.5199443-1.5118926-1.5199443-.6977967 0-1.3955933.584594-1.3955933 1.5199443zm1.5118927-2.4552946c1.860791 0 2.4422882 1.4030255 2.4422882 2.9229697 0 .1169188-.1162995.2338376-.2325989.2338376h-3.6052826v.1169188c0 .9353503.5814972 1.5199443 1.3955933 1.5199443.5814972 0 .9303955-.1169188 1.2792938-.584594.1162994-.1169188.1162994-.1169188.3488983-.1169188h.3488983c.2325989 0 .3488983.1169188.2325989.3507564-.3488983.7015128-1.2792938 1.1691879-2.2096893 1.1691879-1.6281921 0-2.4422882-1.2861067-2.4422882-2.8060509 0-1.5199443.8140961-2.806051 2.4422882-2.806051zm25.4695773 2.1045382 2.209689-1.8707006c.116299-.1169188.232599-.2338376.348898-.2338376h.465198c.232599 0 .348898.2338376.116299.4676752l-2.442288 2.1045382 2.674887 2.4552946c.232599.1169188.232599.4676751 0 .4676751h-.581497c-.116299 0-.348898-.1169188-.465198-.2338376l-2.325988-2.221457v2.1045383c0 .1169187-.1163.2338375-.232599.2338375h-.348899c-.116299 0-.232598-.1169188-.232598-.2338375v-6.7812899c0-.1169187.116299-.2338375.232598-.2338375h.348899c.116299 0 .232599.1169188.232599.2338375zm-1.860791-1.9876194c.116299 0 .232598.1169188.232598.2338376v.3507563c0 .1169188-.116299.2338376-.232598.2338376h-.581498c-.814096 0-1.162994.3507564-1.162994 1.1691879v3.0398886c0 .1169187-.116299.2338375-.232599.2338375h-.348898c-.1163 0-.232599-.1169188-.232599-.2338375v-4.9105892c0-.1169188.116299-.2338376.232599-.2338376h.348898c.1163 0 .232599.1169188.232599.2338376v.3507564c.116299-.2338376.348898-.3507564.465198-.4676752.232599-.1169188.465198-.1169188.697796-.1169188h.581498zm-4.768277 2.6891322c0-.9353504-.348899-1.8707007-1.5118931-1.8707007-1.1629943 0-1.5118926.9353503-1.5118926 1.8707007 0 .9353503.3488983 1.8707006 1.5118926 1.8707006 1.1629941.1169188 1.5118931-.8184315 1.5118931-1.8707006zm-1.5118931-2.806051c1.7444921 0 2.3259891 1.2861067 2.3259891 2.806051 0 1.5199442-.697797 2.8060509-2.3259891 2.8060509-1.7444915 0-2.3259887-1.2861067-2.3259887-2.8060509 0-1.5199443.5814972-2.806051 2.3259887-2.806051zm-5.1171752 3.8583201 1.1629944-3.5075637c0-.1169188.1162994-.2338376.3488983-.2338376h.3488983c.2325989 0 .2325989.1169188.2325989.3507564l-1.5118927 4.7936703c0 .1169188-.1162995.2338376-.3488983.2338376h-.3488984c-.2325988 0-.2325988-.1169188-.3488983-.2338376l-1.1629944-3.5075637-1.1629943 3.5075637c-.1162995.1169188-.1162995.2338376-.3488983.2338376h-.3488984c-.2325988 0-.2325988-.1169188-.3488983-.2338376l-1.5118927-4.7936703c0-.1169188 0-.3507564.2325989-.3507564h.4651978c.1162994 0 .2325988.1169188.3488983.2338376l1.1629944 3.5075637 1.1629943-3.5075637c0-.1169188.1162995-.2338376.3488983-.2338376h.2325989c.1162995 0 .2325989.1169188.3488983.2338376zm-7.3268646-.1169188c0 .5845939.2325989.9353503.8140961.9353503h.5814971c.1162995 0 .2325989.1169188.2325989.2338376v.3507563c0 .1169188-.1162994.2338376-.2325989.2338376h-.5814971c-1.1629944 0-1.6281922-.7015127-1.6281922-1.8707006v-2.6891322h-.6977966c-.1162994 0-.2325989-.1169188-.2325989-.2338376v-.3507563c0-.1169188.1162995-.2338376.2325989-.2338376h.6977966v-1.7537819c0-.1169187.1162995-.2338375.2325989-.2338375h.3488983c.1162994 0 .2325989.1169188.2325989.2338375v1.7537819h1.2792938c.1162994 0 .2325989.1169188.2325989.2338376v.3507563c0 .1169188-.1162995.2338376-.2325989.2338376h-1.2792938zm-8.2572601 1.5199442c0 .1169188-.1162994.2338376-.2325989.2338376h-.4651977c-.1162995 0-.2325989-.1169188-.2325989-.2338376v-2.6891321c0-.9353503-.3488983-1.6368631-1.3955933-1.6368631-.9303955 0-1.3955932.7015128-1.3955932 1.6368631v2.8060509c0 .1169188-.1162995.2338376-.2325989.2338376h-.3488983c-.1162995 0-.2325989-.1169188-.2325989-.2338376v-4.9105891c0-.1169188.1162994-.2338376.2325989-.2338376h.3488983c.1162994 0 .2325989.1169188.2325989.2338376v.3507563c.3488983-.4676751.9303955-.7015127 1.5118927-.7015127 1.3955932 0 2.2096893 1.0522691 2.2096893 2.3383758zm-19.7709045-18.2393312c-.4651977.2338376-1.1629943.584594-1.860791.584594-.814096 0-1.1629944-.3507564-1.1629944-1.0522691 0-.7015128.4651978-1.0522691 1.3955933-1.0522691h1.6281921zm-2.0933898-3.6244824c-2.3259888 0-4.1867798 1.1691879-4.1867798 3.85832 0 2.1045382 1.3955932 3.2737261 3.4889831 3.2737261 1.5118927 0 2.4422882-.5845939 3.1400848-1.1691879l.1162995.584594c0 .2338376.2325989.3507564.4651977.3507564h1.9770905c.2325989 0 .4651977-.2338376.4651977-.4676752v-7.1320462c0-2.221457-1.0466949-3.9752388-4.535678-3.9752388-1.5118927 0-2.7911866.2338376-3.9541809.4676751-.2325989.1169188-.3488983.2338376-.3488983.4676752v1.4030255c0 .2338375.2325988.4676751.4651977.4676751h3.3726837c.8140961 0 1.5118927.3507564 1.5118927 1.2861067v.3507564h-1.9770904zm-20.3524017 2.9229697c0 2.9229697 1.1629944 4.3259952 3.8378815 4.3259952 1.1629943 0 2.2096893-.2338376 2.7911865-.5845939.2325988-.1169188.3488983-.2338376.3488983-.4676752v-1.4030255c0-.2338375-.2325989-.4676751-.4651978-.4676751h-1.860791c-.5814972 0-1.1629944-.4676752-1.1629944-1.1691879v-4.5598328h2.4422882c.3488984 0 .5814972-.2338376.5814972-.584594v-1.8707006c0-.3507564-.2325988-.5845939-.5814972-.5845939h-2.4422882v-3.15680737c0-.35075637-.3488983-.58459395-.6977966-.46767516l-2.3259887.81843153c-.2325989.11691879-.3488984.23383758-.3488984.46767516v2.33837584h-1.3955932c-.3488983 0-.5814972.2338375-.5814972.5845939v1.8707006c0 .3507564.2325989.584594.5814972.584594h1.3955932zm15.2352264-7.4828025c-1.860791 0-3.0237854.8184315-3.4889832 1.1691879l-.1162994-.584594c0-.2338376-.2325989-.3507564-.4651977-.3507564h-1.9770905c-.2325989 0-.4651977.2338376-.4651977.4676752v10.4057723c0 .2338376.2325988.4676751.4651977.4676751h2.3259888c.2325988 0 .4651977-.2338375.4651977-.4676751v-7.4828026c.3488983-.3507563 1.046695-.7015127 2.5585877-.7015127h.6977966c.2325989 0 .4651977-.2338376.4651977-.4676752v-1.8707006c0-.3507564-.2325988-.5845939-.4651977-.5845939zm15.1189269.5845939c0-.2338376-.2325989-.3507564-.4651977-.3507564h-2.6748871c-.2325989 0-.4651978.2338376-.4651978.4676752v.2338376l3.8378815 10.4057723c.1162994.2338375.2325989.3507563.4651977.3507563h2.4422882c.2325989 0 .3488984-.1169188.4651978-.3507563l3.8378814-10.4057723c0-.1169188 0-.1169188 0-.2338376 0-.2338376-.2325988-.4676752-.4651977-.4676752h-2.5585876c-.2325989 0-.4651978.1169188-.4651978.3507564l-1.9770904 6.4305334zm65.5928827 8.3012341c-.930395 0-1.744491-.584594-1.744491-2.9229698s.930395-2.9229697 1.744491-2.9229697c.930396 0 1.744492.5845939 1.744492 2.9229697.116299 2.3383758-.814096 2.9229698-1.744492 2.9229698zm0-8.885828c-3.488983 0-5.233474 2.1045382-5.233474 5.8459395 0 3.85832 1.744491 5.8459394 5.233474 5.8459394s5.233475-2.1045382 5.233475-5.8459394c0-3.7414013-1.744492-5.8459395-5.233475-5.8459395zm-6.280169.2338375h-2.442289c-.232598 0-.465197.1169188-.581497.4676752l-1.97709 5.9628583-2.09339-5.9628583c-.116299-.2338376-.232599-.3507564-.465198-.3507564h-2.674887c-.348898 0-.581497.2338376-.581497.4676752v.2338376l4.07048 10.0550159-1.860791 4.9105892c-.116299.3507563.1163.7015127.465198.7015127h2.442288c.232599 0 .348899-.1169188.465198-.3507564l5.582373-15.3163614c0-.1169188 0-.1169188 0-.2338376.116299-.3507564-.116299-.584594-.348898-.584594zm41.635198 4.6767516c-.581497-.2338375-1.744491-.5845939-2.442288-.8184315-.348898-.1169188-.697796-.2338376-.697796-.5845939 0-.4676752.465197-.584594 1.279293-.584594h3.140085c.232599 0 .465198-.2338376.465198-.4676752v-1.4030254c0-.2338376-.116299-.4676752-.348898-.4676752-1.162995-.3507564-2.09339-.4676751-3.488983-.4676751-1.977091 0-4.651978.8184315-4.651978 3.6244824 0 .7015128.232599 2.3383758 2.09339 2.9229698.814096.2338376 2.325989.7015127 3.140085.9353503.348898.1169188.581497.3507564.581497.7015127 0 .4676752-.348898.584594-.814096.584594h-4.07048c-.232599 0-.465198.2338376-.465198.4676751v1.4030255c0 .2338376.116299.4676752.348898.4676752.581497.2338376 1.744492.4676751 3.605283.4676751 4.768277 0 5.000876-2.6891321 5.000876-3.7414012.116299-1.2861067-.581498-2.4552946-2.674888-3.0398886zm-56.637826 3.2737261c-.465198.2338376-1.162994.584594-1.860791.584594-.814096 0-1.162994-.3507564-1.162994-1.0522691 0-.7015128.465198-1.0522691 1.395593-1.0522691h1.628192zm-1.046695-8.1843152c-1.511892 0-2.791186.2338375-3.954181.4676751-.232599.1169188-.348898.2338376-.348898.4676752v1.4030255c0 .2338375.232599.4676751.465198.4676751h3.372683c.814097 0 1.511893.3507564 1.511893 1.2861067v.3507564h-2.09339c-2.325988 0-4.186779 1.1691879-4.186779 3.85832 0 2.1045382 1.395593 3.2737261 3.488983 3.2737261 1.511892 0 2.442288-.5845939 3.140084-1.1691879l.1163.584594c0 .2338376.232599.3507564.465198.3507564h1.97709c.232599 0 .465198-.2338376.465198-.4676752v-7.1320462c0-1.8707006-.930396-3.7414012-4.419379-3.7414012zm38.727713.2338375h-2.325989c-.232599 0-.465197.2338376-.465197.4676752v7.5997213c-.465198.3507564-1.162995.584594-1.744492.584594-1.046695 0-1.279294-.584594-1.279294-1.8707007v-6.3136146c0-.2338376-.232599-.4676752-.465198-.4676752h-2.325988c-.232599 0-.465198.2338376-.465198.4676752v6.1966959c0 1.4030254-.232599 4.9105891 3.488983 4.9105891 1.395593 0 2.558588-.4676751 3.256384-1.1691879l.1163.584594c0 .2338376.232599.3507563.465198.3507563h1.97709c.232599 0 .465198-.2338375.465198-.4676751v-10.4057723c-.1163-.3507564-.348899-.4676752-.697797-.4676752zm10.699548 8.6519905h-1.860791c-.581497 0-1.162994-.4676752-1.162994-1.1691879v-4.5598328h2.442288c.348898 0 .581497-.2338376.581497-.584594v-1.8707006c0-.3507564-.232599-.5845939-.581497-.5845939h-2.442288v-3.15680737c0-.35075637-.348898-.58459395-.697797-.46767516l-2.325988.81843153c-.232599.11691879-.348899.23383758-.348899.46767516v2.33837584h-1.395593c-.348898 0-.581497.2338375-.581497.5845939v1.8707006c0 .3507564.232599.584594.581497.584594h1.395593v4.442914c0 2.9229697 1.162995 4.3259952 3.837882 4.3259952 1.162994 0 2.209689-.2338376 2.791186-.5845939.232599-.1169188.348899-.2338376.348899-.4676752v-1.4030255c-.1163-.3507563-.348899-.5845939-.581498-.5845939zm-69.0818658 2.221457v-16.0178742c0-.35075637-.3488983-.58459395-.6977966-.46767516l-2.3259888.81843152c-.2325988.11691879-.3488983.23383758-.3488983.46767516v15.19944268c0 .2338376.2325989.4676751.4651978.4676751h2.3259887c.3488983 0 .5814972-.2338375.5814972-.4676751zm-10.35065-8.1843153c1.3955933 0 1.6281922 1.1691879 1.6281922 1.7537819h-3.1400848c-.1162995-1.1691879.5814971-1.7537819 1.5118926-1.7537819zm4.0704804 6.3136147c0-.2338376-.2325989-.3507564-.3488983-.3507564h-3.0237854c-1.3955933 0-2.3259888-.3507564-2.3259888-1.9876194h5.582373c.5814972 0 .9303955-.2338376.9303955-1.1691879 0-4.2090765-2.2096893-5.7290207-4.8845764-5.7290207-3.4889831 0-5.2334747 2.221457-5.2334747 5.8459395 0 3.1568073 1.046695 5.8459394 5.3497742 5.8459394 1.3955932 0 2.6748871-.2338375 3.6052826-.4676751.2325988-.1169188.3488983-.2338376.3488983-.4676752zm13.7233337-.3507564c-.5814972 0-1.046695-.1169188-1.5118927-.2338376v-5.027508c.4651977-.3507563 1.0466949-.7015127 1.7444915-.7015127.9303955 0 1.9770909.7015127 1.9770909 2.9229698 0 2.3383757-.9303959 3.0398885-2.2096897 3.0398885zm1.2792938-8.885828c-1.3955933 0-2.4422882.5845939-3.0237854 1.2861067l-.1162995-.7015128c0-.2338376-.2325988-.3507564-.4651977-.3507564h-1.9770905c-.2325988 0-.4651977.2338376-.4651977.4676752v15.3163615c0 .2338375.2325989.4676751.4651977.4676751h2.3259888c.2325989 0 .4651978-.2338376.4651978-.4676751v-4.5598328c.5814971.1169187 1.1629943.2338375 1.9770904.2338375 3.372684 0 5.117175-2.221457 5.117175-5.9628582 0-3.6244825-1.511892-5.7290207-4.3030789-5.7290207z" fill="#fff"/><path d="m26.9339985 29.5568527h-7.1129721c-.5927477 0-1.0669459-.4705478-1.0669459-1.0587326v-5.4112997h6.401675c.3556486 0 .5927477-.235274.5927477-.4705479l.4741981-2.5880129c.1185496-.3529108-.2370991-.7058217-.5927477-.7058217h-10.7880078v9.2933192c0 2.7056498 2.2524412 4.9407519 4.9790806 4.9407519h3.7935851v2.8232869c-1.8967926.7058217-3.5564861.9410956-5.5718282.9410956-5.3347291 0-8.53556661-2.9409238-8.65411615-8.2345866v-9.763867h-8.29846754c-.35564861 0-.59274769.2352739-.59274769.4705478l-.47419814 2.470376c-.11854954.3529108.23709907.7058217.59274768.7058217h4.86053099v5.9994845c.11854954 3.2938347.94839629 6.2347584 3.31938702 8.5874975 2.13389163 2.235102 5.33472913 3.2938346 9.12831433 3.2938346 3.2008375 0 5.6903777-.4705478 8.8912152-1.9998282.3556486-.2352739.5927477-.5881847.5927477-.9410956v-7.8816757c.1185495-.2352739-.2370991-.4705478-.4741982-.4705478zm-25.01395214-14.2340711h7.46862079v-8.23458663l5.45327865-1.88219122v10.11677785h11.6178546c.3556486 0 .5927477-.2352739.5927477-.4705478l.4741981-2.588013c.1185496-.3529108-.2370991-.7058217-.5927477-.7058217h-8.179918v-10.94023645c0-.4705478-.4741981-.70582171-.8298467-.58818476l-11.9735032 4.23493025c-.23709907.11763695-.47419815.35291086-.47419815.58818476v6.5876693h-3.08228794c-.35564861 0-.59274769.2352739-.59274769.4705478l-.47419814 2.5880129c-.11854954.4705478.23709907.8234587.59274768.8234587z" fill="#0085ff"/></g></svg>