<svg fill="none" height="40" width="40" xmlns="http://www.w3.org/2000/svg"><g stroke="#0085ff" stroke-linecap="round" stroke-linejoin="round" stroke-width="2.5"><path d="M23.156 21.25h11.25l.785 1.32a1.61 1.61 0 010 1.785l-.5.745a1.61 1.61 0 00-.1 1.612l.833 1.666a1.611 1.611 0 010 1.44l-.952 1.902c-.19.382-.221.824-.086 1.228l.278.834a1.605 1.605 0 01-.388 1.646l-2.37 2.072H20.622c-.613 0-1.222.117-1.791.345l-3.167.905m-11.26-9.655l5.404-2.027a3.225 3.225 0 001.611-1.333l3.475-8.037c.365-.593.854-1.1 1.434-1.486l1.21-.809m.706 4.939L15.667 2.288a.907.907 0 01.898-1.038h12.587"/><path d="M23.604 21.25l-1.41-14.015a.833.833 0 01.833-.922h11.5a.834.834 0 01.834.962L33.264 21.25"/><path d="M28.48 14.368a.625.625 0 11-.626.632.625.625 0 01.625-.625"/></g></svg>