<svg fill="none" height="40" width="40" xmlns="http://www.w3.org/2000/svg"><g stroke="#0085ff" stroke-linecap="round" stroke-linejoin="round" stroke-width="2.5"><path d="M38.56 38.75l.168-1.87a5 5 0 00-3.895-5.333l-6.085-1.354v-9.568a3.125 3.125 0 00-6.25 0v15.333l-2.462-1.846a2.554 2.554 0 00-3.577 3.576l.79 1.054"/><path d="M36.25 26.25V3.75a2.5 2.5 0 00-2.5-2.5h-30a2.5 2.5 0 00-2.5 2.5v27.5a2.5 2.5 0 002.5 2.5h7.5m-10-25h35"/><path d="M15 13.75H7.5c-.69 0-1.25.56-1.25 1.25v7.5c0 .69.56 1.25 1.25 1.25H15c.69 0 1.25-.56 1.25-1.25V15c0-.69-.56-1.25-1.25-1.25zm-8.75 15h10.002m4.998-15h10.002"/></g></svg>