<svg fill="none" height="48" width="203" xmlns="http://www.w3.org/2000/svg"><g clip-rule="evenodd" fill-rule="evenodd"><path d="M78.763 41.113h3.458v-.036c0-1.114-.717-1.792-1.731-1.792-.976 0-1.727.705-1.727 1.828zm1.727-2.836c2.156 0 2.924 1.648 2.843 3.447a.34.34 0 01-.332.332h-4.234v.074c0 1.036.668 1.77 1.723 1.77.637 0 1.122-.17 1.563-.65.127-.138.203-.172.394-.172h.42c.232 0 .355.178.246.415-.398.863-1.485 1.43-2.623 1.431-1.904.002-2.85-1.57-2.85-3.373 0-1.8.979-3.274 2.85-3.274zm-34.233 5.678c1.045 0 2.035-.754 1.983-1.911l-.017-.37-1.533.27c-.783.137-1.553.368-1.553 1.121 0 .59.495.89 1.12.89zm-2.276-.767c0-1.434 1.095-1.893 2.302-2.1l1.957-.337c0-.947-.477-1.454-1.44-1.454-.597 0-.943.226-1.293.703-.106.145-.22.173-.394.173h-.43a.27.27 0 01-.271-.333c.207-1.042 1.519-1.563 2.388-1.563 1.512 0 2.56.881 2.56 2.437v3.755c0 .182-.15.332-.332.332h-.456a.334.334 0 01-.332-.332v-.505c-.363.608-1.256.96-2.117.96-1.043 0-2.142-.566-2.142-1.736zm24.94.767c1.045 0 2.035-.754 1.983-1.911l-.017-.37-1.533.27c-.784.137-1.554.368-1.554 1.121 0 .59.496.89 1.121.89zm-2.276-.767c0-1.434 1.095-1.893 2.301-2.1l1.958-.337c0-.947-.478-1.454-1.44-1.454-.597 0-.943.226-1.293.703-.106.145-.22.173-.394.173h-.431a.27.27 0 01-.27-.333c.207-1.042 1.518-1.563 2.387-1.563 1.513 0 2.56.881 2.56 2.437v3.755c0 .182-.15.332-.332.332h-.455a.334.334 0 01-.332-.332v-.505c-.363.608-1.256.96-2.117.96-1.044 0-2.142-.566-2.142-1.736zm8.644-.541c0 .712.233 1.095.995 1.095h.627c.18 0 .32.156.32.333v.394a.327.327 0 01-.32.332h-.746c-1.417 0-1.953-.811-1.953-2.154v-3.188h-.877a.328.328 0 01-.32-.333v-.394c0-.176.14-.332.32-.332h.877v-2.006c0-.177.139-.333.32-.333h.437c.18 0 .32.156.32.333V38.4h1.504c.18 0 .32.156.32.332v.394c0 .177-.14.333-.32.333H75.29v3.188zm-9.776-5.552c0 .177-.14.333-.32.333h-.674a.328.328 0 01-.32-.333v-.701c0-.177.14-.333.32-.333h.674c.18 0 .32.156.32.333zm-.118 7.374c0 .176-.14.332-.32.332h-.438a.328.328 0 01-.32-.332v-5.737c0-.176.14-.332.32-.332h.438c.18 0 .32.156.32.332zm-2.97 0a.327.327 0 01-.32.332h-.437a.328.328 0 01-.32-.332v-8.075c0-.177.14-.333.32-.333h.438c.18 0 .32.156.32.333v8.075zm-2.97 0a.328.328 0 01-.319.332h-.438a.328.328 0 01-.32-.332v-5.01h-2.143v5.01c0 .177-.14.332-.32.332h-.438a.328.328 0 01-.32-.332v-5.01h-2.499v5.01a.328.328 0 01-.32.332h-.437a.328.328 0 01-.32-.332v-5.01h-.995a.328.328 0 01-.32-.333v-.394c0-.176.14-.332.32-.332h.995v-.615c0-1.355.547-2.093 1.954-2.093h.746c.18 0 .32.156.32.332v.394c0 .177-.14.333-.32.333h-.628c-.761 0-.995.383-.995 1.095v.554h2.5v-.615c0-1.355.547-2.093 1.953-2.093h2.025c.18 0 .32.155.32.332v.394c0 .177-.14.333-.32.333H57.23c-.773 0-.994.4-.994 1.095v.554h2.901c.18 0 .32.156.32.332v5.737zm36.152-3.356h3.46v-.037c0-1.114-.718-1.791-1.732-1.791-.976 0-1.728.705-1.728 1.828zm1.728-2.836c2.155 0 2.924 1.648 2.843 3.446a.34.34 0 01-.332.333H95.61v.074c0 1.036.669 1.77 1.724 1.77.637 0 1.122-.17 1.563-.65.127-.139.203-.173.394-.173h.42c.232 0 .355.179.245.416-.398.863-1.484 1.43-2.622 1.43-1.905.002-2.85-1.57-2.85-3.372 0-1.8.979-3.274 2.85-3.274zm30.27 2.488l2.561-2.156c.147-.124.28-.21.48-.21h.555c.284 0 .476.226.165.485l-2.918 2.434 3.169 2.933c.22.204.213.541-.066.55h-.671a.71.71 0 01-.505-.21l-2.77-2.672v2.549c0 .182-.15.332-.332.332h-.455a.336.336 0 01-.333-.332V36.4c0-.182.151-.332.333-.332h.455c.182 0 .332.15.332.332zm-2.233-2.365c.18 0 .32.155.32.332v.394c0 .177-.14.333-.32.333h-.687c-.908 0-1.362.471-1.362 1.415v3.594a.328.328 0 01-.319.333h-.438a.328.328 0 01-.32-.333v-5.736c0-.177.139-.332.32-.332h.438c.18 0 .319.156.319.332v.382c.158-.246.348-.427.569-.542s.509-.172.864-.172zm-5.684 3.206c0-1.17-.382-2.27-1.753-2.27-1.37 0-1.752 1.1-1.752 2.27 0 1.166.392 2.26 1.752 2.26s1.753-1.093 1.753-2.26zm-1.753-3.33c2.055 0 2.819 1.5 2.819 3.33 0 1.826-.777 3.318-2.819 3.318-2.029 0-2.83-1.494-2.83-3.318 0-1.826.793-3.33 2.83-3.33zm-6.075 4.53l1.327-4.11c.065-.182.207-.296.402-.296h.391c.214 0 .318.203.272.394l-1.812 5.662c-.057.181-.141.345-.355.345h-.367c-.21 0-.293-.176-.367-.345l-1.409-4.087-1.409 4.087c-.075.17-.157.345-.368.345h-.367c-.214 0-.297-.163-.355-.345l-1.812-5.662c-.046-.19.059-.394.273-.394h.39c.196 0 .338.114.403.295l1.326 4.112 1.421-4.112c.066-.181.163-.295.367-.295h.261c.204 0 .302.114.367.295l1.421 4.112zm-8.68-.16c0 .738.254 1.096.995 1.096h.627c.181 0 .32.156.32.332v.394a.328.328 0 01-.32.333h-.746c-1.417 0-1.954-.811-1.954-2.154v-3.188h-.876a.329.329 0 01-.32-.333v-.394c0-.176.14-.332.32-.332h.876v-2.006c0-.177.14-.333.32-.333h.438c.18 0 .32.156.32.333V38.4h1.504c.18 0 .32.156.32.332v.394c0 .177-.14.333-.32.333h-1.504v3.188zm-9.877 1.822a.328.328 0 01-.32.333h-.437a.328.328 0 01-.32-.333v-3.25c0-1.101-.476-1.883-1.658-1.883-1.158 0-1.658.804-1.658 1.884v3.25c0 .176-.14.332-.32.332h-.438a.328.328 0 01-.32-.333v-5.736c0-.177.14-.332.32-.332h.438c.18 0 .32.155.32.332v.382c.434-.593 1.122-.837 1.836-.837 1.633 0 2.557 1.19 2.557 2.757zM69.928 22.954c-.508.329-1.325.726-2.202.726-.953 0-1.36-.39-1.36-1.184 0-.791.549-1.204 1.623-1.204h1.94zm-2.534-4.304c-2.793 0-5.03 1.418-5.03 4.592 0 2.526 1.707 3.877 4.185 3.877 1.735 0 2.963-.692 3.698-1.332l.167.678a.602.602 0 00.585.458h2.332a.613.613 0 00.615-.6v-8.377c0-2.572-1.201-4.7-5.352-4.7-1.857 0-3.368.25-4.653.604a.598.598 0 00-.435.578v1.653c0 .333.27.602.602.602h4c.946 0 1.821.385 1.821 1.528v.44h-2.535zm-24.219 3.413c0 3.406 1.351 5.056 4.5 5.056 1.356 0 2.563-.323 3.3-.63a.595.595 0 00.36-.551v-1.656a.602.602 0 00-.601-.602h-2.158a1.372 1.372 0 01-1.372-1.373V16.88h2.93c.345 0 .625-.28.625-.626v-2.188a.625.625 0 00-.625-.625h-2.929l.001-3.764a.602.602 0 00-.804-.567l-2.802 1a.602.602 0 00-.4.566l-.006 2.765h-1.609a.625.625 0 00-.625.625v2.188c0 .346.28.626.625.626h1.601l-.011 5.184zm18.091-8.817c-2.232 0-3.57.925-4.102 1.391L57 13.911a.602.602 0 00-.587-.471h-2.32a.602.602 0 00-.603.602V26.32c0 .332.27.602.602.602h2.8c.333 0 .603-.27.603-.602v-8.817c.48-.454 1.249-.82 2.97-.82h.847c.332 0 .602-.27.602-.602V13.85c0-.35-.3-.603-.65-.603zm18.058.614a.598.598 0 00-.574-.42h-3.177a.593.593 0 00-.602.589c0 .072.01.147.037.22l4.512 12.28a.602.602 0 00.565.394h2.959a.602.602 0 00.565-.394l4.512-12.28a.597.597 0 00-.565-.81h-3.019a.598.598 0 00-.574.421l-2.32 7.64zm77.831 9.82c-1.097 0-2.14-.692-2.14-3.498 0-2.805 1.043-3.498 2.14-3.498 1.096 0 2.139.692 2.139 3.498s-1.043 3.498-2.139 3.498zm0-10.434c-4.082 0-6.169 2.433-6.169 6.935 0 4.503 2.087 6.938 6.169 6.938 4.081 0 6.168-2.435 6.168-6.938 0-4.502-2.087-6.935-6.168-6.935zm-7.481.194h-2.872a.716.716 0 00-.679.489l-2.352 7.034-2.475-7.106a.621.621 0 00-.587-.417h-3.18c-.353 0-.622.255-.622.609a.65.65 0 00.047.249l4.85 11.812-2.2 5.85a.602.602 0 00.563.814h2.84a.6.6 0 00.564-.394l6.686-18.103a.62.62 0 00-.583-.837zm49.486 5.574l-2.847-.899c-.431-.136-.848-.264-.848-.682 0-.552.545-.749 1.543-.749h3.794a.6.6 0 00.599-.602v-1.704a.599.599 0 00-.43-.577c-1.379-.394-2.545-.555-4.125-.555-2.293 0-5.493.94-5.493 4.307 0 .809.235 2.701 2.481 3.414l3.68 1.168c.355.112.684.356.684.805 0 .52-.383.74-1.022.74h-4.846a.602.602 0 00-.602.602v1.688a.6.6 0 00.425.576c.687.211 2.098.573 4.287.573 5.72 0 5.979-3.213 5.979-4.424 0-1.535-.862-2.925-3.259-3.681zm-67.234 3.94c-.507.329-1.325.726-2.201.726-.954 0-1.361-.39-1.361-1.184 0-.791.549-1.204 1.624-1.204h1.939zm-1.334-9.708c-1.857 0-3.367.25-4.653.604a.598.598 0 00-.435.578v1.653c0 .333.27.602.602.602h4c.947 0 1.821.385 1.821 1.528v.44h-2.535c-2.792 0-5.029 1.417-5.029 4.591 0 2.526 1.707 3.877 4.184 3.877 1.736 0 2.963-.692 3.699-1.332l.167.678a.601.601 0 00.584.458h2.344c.333 0 .602-.27.602-.602v-8.375c0-2.572-1.2-4.7-5.351-4.7zm46.074.194h-2.8a.602.602 0 00-.602.602v8.928c-.57.387-1.321.71-2.118.71-1.214 0-1.523-.701-1.523-2.168v-7.47a.601.601 0 00-.601-.601h-2.801a.602.602 0 00-.602.602v7.342c0 1.677-.221 5.734 4.094 5.734 1.674 0 3.014-.562 3.911-1.365l.141.687a.6.6 0 00.589.482h2.312c.333 0 .602-.27.602-.602v-12.28a.602.602 0 00-.602-.601zm12.606 10.24h-2.159a1.372 1.372 0 01-1.372-1.373l.001-5.428h2.929c.346 0 .626-.28.626-.626v-2.188a.626.626 0 00-.626-.625h-2.928l.001-3.764a.602.602 0 00-.805-.567l-2.802 1a.6.6 0 00-.399.566l-.007 2.765h-1.608a.626.626 0 00-.626.625v2.188c0 .346.28.626.626.626h1.601l-.012 5.184c0 3.406 1.352 5.056 4.501 5.056 1.355 0 2.562-.323 3.299-.63a.594.594 0 00.361-.551v-1.656a.601.601 0 00-.601-.602zm-82.017 2.641l.002-18.893a.601.601 0 00-.804-.567l-2.802 1a.601.601 0 00-.399.567V26.32c0 .333.244.603.577.603h2.824c.333 0 .602-.27.602-.602zm-12.259-9.637c1.608 0 1.868 1.434 1.868 2.083h-3.761c0-1.437.796-2.083 1.893-2.083zm4.91 7.476a.48.48 0 00-.48-.48h-3.605c-1.61 0-2.807-.412-2.807-2.285h6.69c.752 0 1.096-.293 1.096-1.409 0-5.02-2.604-6.74-5.804-6.74-4.081 0-6.168 2.573-6.168 6.932 0 3.754 1.31 6.94 6.327 6.94 1.685 0 3.216-.227 4.32-.563a.604.604 0 00.431-.578zm16.275-.48a5.888 5.888 0 01-1.789-.274v-5.888c.506-.438 1.255-.834 2.024-.834 1.124 0 2.281.795 2.281 3.497 0 2.656-1.1 3.5-2.516 3.5zm1.52-10.434c-1.698 0-2.897.735-3.627 1.454l-.176-.79a.601.601 0 00-.587-.47h-2.321a.602.602 0 00-.602.602v18.13c0 .332.269.602.602.602h2.801c.332 0 .601-.27.601-.602v-5.377a8.03 8.03 0 002.305.324c3.993 0 6.014-2.594 6.014-7.096 0-4.311-1.757-6.777-5.01-6.777z" fill="#fff"/><path d="M31.28 34.569h-8.24a1.28 1.28 0 01-1.28-1.28V26.88h7.512a.72.72 0 00.71-.601l.51-3.04a.72.72 0 00-.71-.839H17.28v10.889a5.76 5.76 0 005.76 5.76h4.48v3.331c-2.216.842-4.113 1.14-6.558 1.14-6.237 0-9.909-3.463-10.082-9.6V22.4H1.229a.72.72 0 00-.71.601l-.509 3.04a.72.72 0 00.71.839H6.4v7.04c.098 3.84 1.095 7.366 3.874 10.167C12.814 46.647 16.51 48 20.962 48c3.752 0 6.595-.62 10.304-2.355.449-.21.734-.662.734-1.158v-9.199a.72.72 0 00-.72-.72zM2.22 17.92h8.66V8.307l6.4-2.266V17.92h13.491a.72.72 0 00.71-.601l.509-3.04a.72.72 0 00-.71-.839h-9.52V.72a.72.72 0 00-.96-.678L6.88 4.972a.72.72 0 00-.48.678v7.79H2.728a.72.72 0 00-.71.601l-.508 3.04a.72.72 0 00.71.839z" fill="#0085ff"/></g></svg>