<svg fill="none" height="24" width="24" xmlns="http://www.w3.org/2000/svg"><path d="M20.667 21.333A2.667 2.667 0 0118 24H3.334a2.667 2.667 0 01-2.667-2.667V2.667A2.667 2.667 0 013.334 0H18a2.667 2.667 0 012.667 2.667z" fill="#ccd6dd"/><path d="M18 16a.666.666 0 01-.667.667H4a.666.666 0 110-1.334h13.333c.369 0 .667.298.667.667zM7.333 18.667a.666.666 0 01-.667.666H4A.666.666 0 114 18h2.666c.368 0 .667.298.667.667zM18 5.333a.666.666 0 01-.667.667H4a.667.667 0 010-1.333h13.333c.369 0 .667.298.667.666zM18 8a.666.666 0 01-.667.667H4a.666.666 0 110-1.334h13.333c.369 0 .667.298.667.667zm0 2.667a.666.666 0 01-.667.666H4A.666.666 0 114 10h13.333c.369 0 .667.298.667.667zm0 2.666a.666.666 0 01-.667.667H4a.666.666 0 110-1.333h13.333c.369 0 .667.298.667.666z" fill="#99aab5"/><path d="M20.666 4.181c-.55-.356-1.224-.386-1.68-.015l-.528.43-.99.808-.066.053-1.584 1.292-7.919 6.458c-.291.238-.528.812-.782 1.382-.252.567-.646 1.902-.962 2.928-.098.166-.71 1.23-.367 1.635.347.41 1.55.007 1.712-.05 1.084-.117 2.487-.25 3.099-.387.616-.141 1.236-.264 1.527-.502.005-.004.007-.012.011-.015l7.906-6.444.528-.43.096-.08z" fill="#66757f"/><path d="M12.096 15.017s-.85-1.254-1.411-1.702c-.448-.562-1.7-1.41-1.7-1.41-.298-.298-.793-.32-1.085-.029-.292.292-.53.91-.782 1.527-.315.764-.851 2.77-1.18 3.835-.054.181.346-.3.336-.14a1.35 1.35 0 00.05.387l-.098.106.139.045.045.14.106-.097c.125.031.263.056.387.049.16-.01-.322.391-.14.335 1.065-.328 3.071-.864 3.834-1.178.616-.254 1.236-.491 1.528-.783.292-.29.27-.785-.029-1.085z" fill="#d99e82"/><path d="M16.875 2.9a1.492 1.492 0 000 2.113l2.11 2.112c.585.582 1.53.582 2.113 0l2.113-2.112a1.494 1.494 0 000-2.112L21.098.789a1.493 1.493 0 00-2.112 0z" fill="#ea596e"/><path d="M7.9 11.877l2.113 2.113 2.11 2.11 7.92-7.919-4.224-4.224z" fill="#ffcc4d"/><path d="M7.532 17.828s-1.373.755-1.744.384c-.371-.372.387-1.74.387-1.74s1.3.023 1.357 1.356z" fill="#292f33"/><path d="M15.818 3.957l2.64-2.64 4.224 4.224-2.64 2.64z" fill="#ccd6dd"/><path d="M17.402 2.372l.528-.528 4.224 4.223-.528.528zm-1.055 1.056l.527-.527 4.224 4.223-.528.528z" fill="#99aab5"/></svg>