<svg width="18" height="18" viewBox="0 0 18 18" fill="none" xmlns="http://www.w3.org/2000/svg">
<path fill-rule="evenodd" clip-rule="evenodd" d="M14.73 12.9632H11.64C11.3749 12.9632 11.16 12.7483 11.16 12.4832V10.08H13.9772C14.1091 10.08 14.2217 9.98466 14.2435 9.85455L14.4343 8.71455C14.4618 8.54994 14.3349 8.4 14.168 8.4H9.48001V12.4832C9.48001 13.6761 10.4471 14.6432 11.64 14.6432H13.32V15.8925C12.4888 16.2083 11.7775 16.32 10.8609 16.32C8.52191 16.32 7.14491 15.0215 7.08001 12.72V8.4H3.46084C3.32893 8.4 3.21631 8.49534 3.19456 8.62545L3.00376 9.76545C2.97625 9.93006 3.10315 10.08 3.27007 10.08H5.40001V12.72C5.43688 14.16 5.81065 15.4822 6.85291 16.5327C7.8052 17.4926 9.19114 18 10.8609 18C12.2677 18 13.3337 17.7675 14.7246 17.117C14.8929 17.0383 15 16.8686 15 16.6828V13.2332C15 13.084 14.8791 12.9632 14.73 12.9632Z" fill="#0085FF"/>
<path fill-rule="evenodd" clip-rule="evenodd" d="M3.83237 6.71999H7.08002V3.11519L9.48001 2.26532V6.71999H14.5392C14.6711 6.71999 14.7837 6.62465 14.8055 6.49454L14.9962 5.35454C15.0238 5.18993 14.8968 5.03999 14.7299 5.03999H11.16V0.270202C11.16 0.0838116 10.9756 -0.0465084 10.7999 0.0157116L5.57986 1.86419C5.47207 1.90238 5.40002 2.00435 5.40002 2.11871V5.03999H4.02314C3.89123 5.03999 3.77861 5.13533 3.75683 5.26544L3.56609 6.40544C3.53852 6.57005 3.66545 6.71999 3.83237 6.71999Z" fill="#0085FF"/>
</svg>
